<svg width="48" height="48" fill="none" xmlns="http://www.w3.org/2000/svg"><circle cx="24" cy="24" r="24" fill="#55ACE3"/><path d="M36.72 17.88c-.84.36-1.8.6-2.76.72.96-.6 1.8-1.56 2.16-2.64-.96.6-1.92.96-3.12 1.2-.84-.96-2.16-1.56-3.48-1.56-2.64 0-4.8 2.16-4.8 4.8 0 .36 0 .72.12 1.08-3.96-.24-7.56-2.16-9.96-5.04-.36.72-.6 1.56-.6 2.4 0 1.68.84 3.12 2.16 3.96-.84 0-1.56-.24-2.16-.6 0 2.28 1.68 4.32 3.84 4.68-.36.12-.84.12-1.32.12-.36 0-.6 0-.96-.12.6 1.92 2.4 3.36 4.56 3.36-1.68 1.32-3.72 2.04-6 2.04-.36 0-.72 0-1.2-.12 2.16 1.32 4.68 2.16 7.44 2.16 8.88 0 13.68-7.32 13.68-13.68v-.6c.96-.36 1.8-1.2 2.4-2.16z" fill="#fff"/></svg>