<svg width="48" height="48" fill="none" xmlns="http://www.w3.org/2000/svg"><circle cx="24" cy="24" r="24" fill="#7294C7"/><path d="M35.767 30.138c0-.1-.1-.1-.1-.199-.398-.797-1.294-1.793-2.49-2.89-.598-.497-.896-.896-1.096-1.095-.299-.399-.299-.697-.199-1.096.1-.299.498-.797 1.195-1.694.399-.498.598-.797.897-1.095 1.495-1.993 2.192-3.288 1.993-3.886l-.1-.1c-.1-.1-.2-.199-.398-.199-.2-.1-.499-.1-.797 0h-4.484l-.1.1c-.099.1-.099.1-.099.2-.399 1.095-.897 1.992-1.395 2.988-.299.498-.598.996-.896 1.395-.3.398-.498.697-.698.896-.199.2-.398.3-.498.498-.1.1-.299.2-.299.1-.1 0-.199 0-.199-.1l-.299-.298c-.1-.1-.1-.3-.2-.498v-4.982c0-.1-.099-.299-.099-.398l-.299-.3c-.1-.099-.299-.099-.398-.199a8.91 8.91 0 00-1.793-.199c-1.595 0-2.69.1-3.089.3-.2.099-.398.198-.498.398-.2.199-.2.299-.1.299.498.1.897.298 1.096.597l.1.2c.1.1.1.298.2.597.099.3.099.598.099.996v1.595c0 .498-.1.797-.1 1.096 0 .298-.1.498-.2.597-.099.2-.099.3-.198.3 0 0 0 .099-.1.099s-.2.1-.399.1c-.1 0-.298-.1-.398-.2a1.2 1.2 0 01-.498-.498c-.2-.2-.399-.498-.598-.897-.2-.398-.498-.797-.697-1.395l-.2-.398c-.1-.2-.298-.598-.498-1.096-.199-.498-.398-.896-.598-1.395a1.384 1.384 0 00-.298-.398h-.1s-.1-.1-.2-.1c-.099 0-.198-.1-.298-.1h-3.587c-.398 0-.598.1-.697.2l-.1.1v.199c0 .1 0 .199.1.398.498 1.196 1.096 2.391 1.694 3.587.597 1.096 1.195 2.092 1.594 2.79.498.697.896 1.394 1.394 1.992.498.598.797.996.897 1.195l.399.399.298.299c.2.2.498.498.897.797.398.299.897.598 1.395.897.498.298 1.096.498 1.694.697.697.2 1.295.299 1.892.2h1.495c.299 0 .498-.1.697-.3l.1-.1c0-.099.1-.099.1-.199v-.398c0-.399 0-.697.1-.996.099-.3.099-.498.198-.698.1-.199.2-.299.3-.398l.198-.2h.1c.2-.1.498 0 .698.2.298.199.597.498.797.797.199.299.498.598.896.996.399.399.698.697.897.797l.299.2c.199.099.398.199.697.298.299.1.498.1.697.1l3.388-.1c.299 0 .598-.1.797-.2.2-.099.299-.198.299-.398v-.398c-.2-.2-.2-.299-.2-.399z" fill="#fff"/></svg>