<svg width="24" height="24" viewBox="0 0 24 24" fill="none" xmlns="http://www.w3.org/2000/svg">
<g clip-path="url(#clip0)">
<path d="M18.6235 3.29608L12.2068 0.0375979C12.1066 -0.0125326 11.906 -0.0125326 11.8058 0.0375979L5.38907 3.29608C5.28881 3.34621 5.28881 3.44648 5.38907 3.49661L7.44442 4.54935V5.40157C7.44442 6.45431 9.49977 7.30653 12.0564 7.30653C14.6131 7.30653 16.6684 6.45431 16.6684 5.40157V4.49922L17.5207 4.04804V5.30131C17.5207 5.35144 17.5207 5.35144 17.4705 5.35144H17.3201C17.27 5.35144 17.27 5.35144 17.27 5.40157V6.65483C17.27 6.70496 17.27 6.70496 17.3201 6.70496H18.0721C18.1222 6.70496 18.1222 6.70496 18.1222 6.65483V5.40157C18.1222 5.35144 18.1222 5.35144 18.0721 5.35144H17.9217C17.8716 5.35144 17.8716 5.35144 17.8716 5.30131V3.89765L18.6235 3.49661C18.7238 3.44648 18.7238 3.34621 18.6235 3.29608Z" fill="black"/>
<path d="M19.8266 17.8341C19.8266 17.8341 19.8266 17.6837 19.6261 17.0822C19.5259 16.6811 19.3253 16.2801 19.1248 15.879C18.8742 15.4279 18.6235 15.0268 18.2726 14.6759C18.0219 14.3751 17.7212 14.1245 17.3702 13.8738C17.0193 13.6232 16.6183 13.3725 16.2172 13.172C15.7159 12.9213 15.1645 12.7709 14.6131 12.6707C14.2621 12.6205 14.2621 12.6205 14.2621 12.6205C14.212 12.6205 14.1619 12.6205 14.1118 12.6205C15.5655 11.8686 16.518 10.3647 16.518 8.6101C16.518 7.95841 16.3676 7.35684 16.1671 6.8054C15.1645 7.40697 13.6104 7.75788 12.0564 7.75788C10.4522 7.75788 8.84804 7.40697 7.84543 6.75527C7.59478 7.30671 7.44439 7.95841 7.44439 8.6101C7.44439 10.3647 8.447 11.8686 9.90079 12.6205C9.70026 12.6205 9.49974 12.6205 9.34935 12.6707C9.34935 12.6707 9.34935 12.6707 8.84804 12.7709C8.447 12.8712 8.04596 13.0216 7.69504 13.172C7.294 13.3725 6.89295 13.6232 6.54204 13.8738C6.24126 14.2247 5.89034 14.5255 5.63969 14.8764C5.43917 15.1271 5.23864 15.3777 5.08825 15.6284C4.93786 15.9292 4.78747 16.1798 4.63708 16.5307C4.48669 16.8816 4.38643 17.2326 4.28616 17.5835C4.1859 18.0346 4.1859 18.0346 4.1859 18.0346C4.13577 18.4858 4.13577 19.2879 4.13577 19.689C4.13577 20.09 4.13577 20.842 4.13577 21.243C4.13577 21.6942 4.13577 22.0952 4.13577 22.1955C4.13577 22.2957 4.58695 22.6467 5.13838 22.8472C5.13838 22.8472 5.43917 22.9474 6.14099 23.148C8.04596 23.6994 10.1013 24.0002 12.2569 24.0002C14.2621 24.0002 16.2172 23.7495 18.0219 23.2482C18.6235 23.0978 18.824 22.9976 18.824 22.9976C19.3755 22.7971 19.8266 22.5464 19.8266 22.4461C19.8266 22.3459 19.8266 21.5438 19.8266 20.9422C19.8266 20.3407 19.8266 19.6388 19.8266 19.3882C19.8768 19.1375 19.8768 18.4357 19.8266 17.8341Z" fill="black" />
</g>
<defs>
<clipPath id="clip0">
<rect width="24" height="24" fill="white"/>
</clipPath>
</defs>
</svg>
