<svg width="24" height="24" viewBox="0 0 24 24" fill="none" xmlns="http://www.w3.org/2000/svg">
<path d="M18.2121 3.73547L12.1747 0.641914C12.0749 0.592018 11.9252 0.592018 11.8254 0.641914L5.7381 3.73547C5.63831 3.78537 5.63831 3.88516 5.7381 3.93505L7.68405 4.93297V5.73131C7.68405 6.72923 9.62999 7.57747 12.025 7.57747C14.42 7.57747 16.366 6.77913 16.366 5.73131V4.88308L17.2142 4.43401V5.58162C17.2142 5.63152 17.2142 5.63152 17.1643 5.63152H17.0146C17.0146 5.63152 16.9647 5.63152 16.9647 5.68142V6.87892C16.9647 6.87892 16.9647 6.92882 17.0146 6.92882H17.7132C17.7132 6.92882 17.763 6.92882 17.763 6.87892V5.68142C17.763 5.63152 17.7631 5.63152 17.7132 5.63152H17.5635C17.5136 5.63152 17.5136 5.63152 17.5136 5.58162V4.28433L18.2121 3.93505C18.3119 3.88516 18.3119 3.78537 18.2121 3.73547Z" fill="black" />
<path d="M19.3597 17.5069C19.3597 17.5069 19.3597 17.3572 19.21 16.8083C19.1102 16.4092 18.9106 16.01 18.7609 15.6607C18.5114 15.2616 18.262 14.8624 17.9626 14.5131C17.7131 14.2137 17.4137 13.9643 17.1143 13.7148C16.7651 13.4653 16.4158 13.2158 16.0166 13.0661C15.5177 12.8665 15.0187 12.667 14.5198 12.6171C14.1206 12.5672 14.1206 12.5672 14.1206 12.5672C14.0707 12.5672 14.0208 12.5672 13.9709 12.5672C15.3181 11.8686 16.2661 10.4216 16.2661 8.77507C16.2661 8.17632 16.1164 7.57757 15.9168 7.07861C14.9688 7.67736 13.4719 7.97674 12.025 7.97674C10.5281 7.97674 8.98129 7.62746 8.03327 7.02871C7.78379 7.57757 7.6341 8.17632 7.6341 8.77507C7.6341 10.4216 8.58212 11.8686 9.97921 12.6171C9.77963 12.6171 9.62994 12.6171 9.48025 12.667C9.48025 12.667 9.48025 12.667 9.03119 12.7668C8.63202 12.8665 8.28275 13.0162 7.93348 13.1659C7.53431 13.3655 7.18504 13.5651 6.83576 13.8146C6.48649 14.0641 6.18711 14.3634 5.93763 14.7127C5.73805 14.9622 5.58836 15.2117 5.38878 15.4611C5.23909 15.7106 5.0894 16.01 4.98961 16.3094C4.83992 16.6088 4.74013 16.958 4.69023 17.3073C4.59044 17.7065 4.59044 17.7065 4.59044 17.7065C4.54054 18.1555 4.49065 18.8541 4.49065 19.2532C4.49065 19.6524 4.49065 20.351 4.49065 20.7501C4.49065 21.1493 4.49065 21.5984 4.49065 21.6483C4.49065 21.748 4.93971 22.0973 5.43867 22.2969C5.43867 22.2969 5.73805 22.3967 6.3867 22.5963C8.18296 23.0952 10.1289 23.3946 12.1746 23.3946C14.0707 23.3946 15.9168 23.1451 17.6133 22.6961C18.2121 22.5464 18.3618 22.4965 18.3618 22.4965C18.9106 22.2969 19.3098 22.0973 19.3098 21.9476C19.3098 21.8478 19.3098 21.0495 19.3098 20.5505C19.3098 20.0017 19.3098 19.353 19.3098 19.0537C19.4595 18.7543 19.4096 18.0557 19.3597 17.5069Z" fill="black" />
<path d="M23.9002 14.6127C23.9002 14.6127 23.9002 14.5129 23.7505 14.0638C23.6507 13.7146 23.501 13.4152 23.3513 13.1158C23.1517 12.7665 22.9521 12.4672 22.7027 12.1678C22.5031 11.9183 22.2536 11.7187 22.0041 11.5191C21.7047 11.3195 21.4054 11.12 21.106 10.9703C20.7068 10.7707 20.3076 10.6709 19.8586 10.5711C19.5592 10.5711 19.5592 10.5711 19.5592 10.5711C19.5093 10.5711 19.5093 10.5711 19.4594 10.5711C20.5571 9.97235 21.3555 8.77485 21.3555 7.42766C21.3555 6.9287 21.2557 6.47963 21.0561 6.03057C20.4074 6.42974 19.4594 6.67922 18.4615 6.72911V6.8289C18.4615 7.22807 18.1122 7.57734 17.713 7.57734H17.0145C16.9646 7.57734 16.9147 7.57734 16.8648 7.52745C16.9646 7.92662 17.0145 8.27589 17.0145 8.67506C17.0145 9.97236 16.5155 11.1699 15.6673 12.1179C15.8669 12.1678 16.0665 12.2676 16.2661 12.3674C16.7151 12.5669 17.1143 12.8164 17.5135 13.1158C17.8627 13.3653 18.1621 13.6647 18.4615 13.964C18.8108 14.3632 19.1101 14.8123 19.3596 15.2613C19.5592 15.6605 19.7588 16.1096 19.9085 16.5586C20.0083 16.9578 20.1081 17.2572 20.1081 17.4069C20.158 18.0056 20.2078 18.6543 20.2078 18.9536V19.253C21.0062 19.1532 21.8045 19.0035 22.553 18.804C23.0519 18.6543 23.2016 18.6044 23.2016 18.6044C23.6507 18.4547 24 18.2551 24 18.1553C24 18.0555 24 17.4568 24 17.0077C24 16.5586 24 16.0098 24 15.7603C23.9501 15.6605 23.9002 15.1116 23.9002 14.6127Z" fill="black" />
<path d="M22.9522 3.28652L17.9625 0.741817C17.8628 0.691921 17.763 0.691921 17.6632 0.741817L15.817 1.68984L18.5613 3.08693C18.8607 3.23662 19.0104 3.4861 19.0104 3.83537C19.0104 4.13475 18.8108 4.43412 18.5613 4.58381L18.212 4.7335V5.13267C18.3617 5.28236 18.4615 5.48194 18.4615 5.68153V6.38007C20.158 6.28028 21.4553 5.63163 21.4553 4.88319V4.23454L22.1538 3.88527V4.83329C22.1538 4.83329 22.1538 4.88319 22.1039 4.88319H21.9542C21.9542 4.88319 21.9043 4.88319 21.9043 4.93308V5.88111C21.9043 5.88111 21.9043 5.93101 21.9542 5.93101H22.553C22.553 5.93101 22.6029 5.93101 22.6029 5.88111V4.93308C22.6029 4.93308 22.6029 4.88319 22.553 4.88319H22.4033C22.4033 4.88319 22.3534 4.88319 22.3534 4.83329V3.73558L22.9522 3.4362C23.0519 3.38631 23.0519 3.33641 22.9522 3.28652Z" fill="black" />
<path d="M3.7921 19.2531C3.7921 18.8539 3.7921 18.1055 3.842 17.6065V17.5068L3.94179 17.1076C4.04158 16.7084 4.14137 16.3591 4.29106 15.96C4.44075 15.6606 4.59044 15.3113 4.74013 15.0119C4.88981 14.7126 5.0894 14.4631 5.33888 14.2136C5.63825 13.8643 5.98753 13.5151 6.3867 13.2157C6.78586 12.9163 7.18503 12.6668 7.5842 12.4672C7.83368 12.3675 8.03327 12.2677 8.28275 12.1679C7.43451 11.2697 6.98545 10.0722 6.98545 8.77494C6.98545 8.0764 7.13514 7.42775 7.38462 6.7791C7.38462 6.7292 7.33472 6.7292 7.33472 6.67931C6.98545 6.7292 6.58628 6.7791 6.18711 6.7791C4.93971 6.7791 3.69231 6.52962 2.89397 5.98076C2.69439 6.42983 2.59459 6.92879 2.59459 7.42775C2.59459 8.77494 3.39293 9.97245 4.49064 10.5712C4.34096 10.5712 4.19127 10.5712 4.09148 10.5712C4.09148 10.5712 4.09148 10.5712 3.69231 10.671C3.39293 10.7708 3.09356 10.8706 2.79418 11.0203C2.4948 11.17 2.19543 11.3695 1.89605 11.5691C1.59667 11.7687 1.34719 12.0182 1.14761 12.3176C0.997921 12.5171 0.848233 12.7167 0.698545 12.9163C0.548857 13.1159 0.449064 13.3654 0.349272 13.6149C0.24948 13.8643 0.149688 14.1637 0.0997921 14.4631C0.0498961 14.8124 0.0498961 14.8124 0.0498961 14.8124C0 15.1616 0 15.7105 0 16.0598C0 16.409 0 16.9579 0 17.3072C0 17.6564 0 18.0057 0 18.0556C0 18.1055 0.349272 18.4049 0.798337 18.6045C0.798337 18.6045 1.04782 18.7043 1.59667 18.8539C2.29522 19.0036 3.04366 19.1533 3.7921 19.2531Z" fill="black"/>
<path d="M7.1352 6.38007C7.03541 6.18049 6.98551 5.9809 6.98551 5.73142V5.38215L5.43874 4.58381C5.13936 4.43412 4.98967 4.13475 4.98967 3.83537C4.98967 3.536 5.18926 3.23662 5.43874 3.08693L8.18302 1.68984L6.33687 0.741817C6.23707 0.691921 6.13728 0.691921 6.03749 0.741817L0.997989 3.28652C0.898196 3.33641 0.898196 3.38631 0.997989 3.4362L2.59466 4.23454V4.88319C2.59466 5.73142 4.19134 6.38007 6.18718 6.38007C6.48655 6.42997 6.83583 6.42997 7.1352 6.38007Z" fill="black"/>
</svg>
