<svg width="36" height="36" fill="none" xmlns="http://www.w3.org/2000/svg"><circle opacity=".1" cx="18" cy="18" r="18" fill="#071013"/><path d="M22.667 14.333h-.762V12.81A3.811 3.811 0 0018.095 9a3.81 3.81 0 00-3.81 3.81h1.524a2.283 2.283 0 012.286-2.286 2.283 2.283 0 012.286 2.286v1.523h-6.857c-.838 0-1.524.686-1.524 1.524v7.62c0 .837.686 1.523 1.524 1.523h9.143c.838 0 1.523-.686 1.523-1.524v-7.619c0-.838-.685-1.524-1.523-1.524zm0 9.143h-9.143v-7.619h9.143v7.62zm-4.572-2.285c.838 0 1.524-.686 1.524-1.524s-.686-1.524-1.524-1.524-1.524.686-1.524 1.524.686 1.523 1.524 1.523z" fill="#071013"/></svg>