<svg width="36" height="36" fill="none" xmlns="http://www.w3.org/2000/svg"><circle opacity=".1" cx="18" cy="18" r="18" fill="#071013"/><path d="M17.111 13.556h5.333v1.777h-5.333v-1.777zm0 3.555h5.333v1.778h-5.333V17.11zm0 3.556h5.333v1.777h-5.333v-1.777zm-3.555-7.111h1.777v1.777h-1.777v-1.777zm0 3.555h1.777v1.778h-1.777V17.11zm0 3.556h1.777v1.777h-1.777v-1.777zM25.2 10H10.8c-.444 0-.8.356-.8.8v14.4c0 .356.356.8.8.8h14.4c.356 0 .8-.444.8-.8V10.8c0-.444-.444-.8-.8-.8zm-.978 14.222H11.778V11.778h12.444v12.444z" fill="#071013"/></svg>