<svg width="36" height="36" fill="none" xmlns="http://www.w3.org/2000/svg"><circle opacity=".1" cx="18" cy="18" r="18" fill="#071013"/><path d="M20.147 9h-4.573v1.524h4.573V9zm-3.049 9.91h1.525v-4.574h-1.525v4.574zm6.121-5.047l1.083-1.082a8.427 8.427 0 00-1.075-1.075l-1.083 1.083a6.831 6.831 0 00-4.284-1.51 6.86 6.86 0 106.86 6.86 6.865 6.865 0 00-1.5-4.276zm-5.359 9.62a5.332 5.332 0 01-5.335-5.336 5.332 5.332 0 015.335-5.336 5.332 5.332 0 015.336 5.336 5.332 5.332 0 01-5.336 5.336z" fill="#071013"/></svg>