<svg width="90" height="90" fill="none" xmlns="http://www.w3.org/2000/svg"><path d="M75 22.5h-8.175c.412-1.162.675-2.437.675-3.75a11.234 11.234 0 00-20.625-6.187L45 15.075l-1.875-2.55C41.1 9.525 37.687 7.5 33.75 7.5A11.235 11.235 0 0022.5 18.75c0 1.313.262 2.588.675 3.75H15c-4.162 0-7.463 3.338-7.463 7.5L7.5 71.25c0 4.163 3.338 7.5 7.5 7.5h60c4.162 0 7.5-3.337 7.5-7.5V30c0-4.162-3.338-7.5-7.5-7.5zM56.25 15A3.761 3.761 0 0160 18.75a3.761 3.761 0 01-3.75 3.75 3.761 3.761 0 01-3.75-3.75A3.761 3.761 0 0156.25 15zm-22.5 0a3.761 3.761 0 013.75 3.75 3.761 3.761 0 01-3.75 3.75A3.761 3.761 0 0130 18.75 3.761 3.761 0 0133.75 15zM75 71.25H15v-7.5h60v7.5zm0-18.75H15V30h19.05l-7.8 10.613L32.325 45 45 27.75 57.675 45l6.075-4.387L55.95 30H75v22.5z" fill="#FF5E5B"/></svg>