<svg xmlns="http://www.w3.org/2000/svg" xmlns:xlink="http://www.w3.org/1999/xlink" width="0" height="0" style="position:absolute">
	
		<symbol id="arrow-down" viewBox="0 0 12 7">
			<path d="M1.913 0L.621 1.332 6.12 7l5.5-5.668L10.328 0 6.121 4.327 1.913 0z" fill="#1D1D1D"></path>
		</symbol>
	
		<symbol id="logout" viewBox="0 0 24 24">
			<path d="M19 21h-9a2 2 0 0 1-2-2v-4h2v4h9V5h-9v4H8V5a2 2 0 0 1 2-2h9a2 2 0 0 1 2 2v14a2 2 0 0 1-2 2zm-7-5v-3H3v-2h9V8l5 4-5 4z" fill="#FF2689"></path>
		</symbol>
	
		<symbol id="notify" viewBox="0 0 23 30">
			<path d="M22.286 20.936c-1.739-1.544-2.736-3.803-2.736-6.193v-3.368c0-4.252-3.006-7.772-6.9-8.361V1.709C12.65 1.04 12.135.5 11.5.5c-.635 0-1.15.54-1.15 1.209v1.305c-3.895.589-6.9 4.109-6.9 8.361v3.37c0 2.39-.997 4.647-2.746 6.202A2.16 2.16 0 0 0 0 22.553c0 1.165.902 2.115 2.013 2.115h18.974c1.11 0 2.013-.948 2.013-2.115 0-.618-.257-1.204-.714-1.617zM11.5 29.5c2.082 0 3.825-1.559 4.225-3.625h-8.45C7.675 27.941 9.417 29.5 11.5 29.5z"></path>
		</symbol>
	
		<symbol id="refresh" viewBox="0 0 24 24">
			<path d="M11.995 4a8 8 0 1 0 7.735 10h-2.081a6 6 0 1 1-5.654-8 5.92 5.92 0 0 1 4.223 1.78L13 11h7V4l-2.351 2.35A7.965 7.965 0 0 0 11.995 4z" fill="#1D1D1D"></path>
		</symbol>
	
		<symbol id="user" viewBox="0 0 24 24">
			<path d="M7 8a5 5 0 1 1 10 0A5 5 0 0 1 7 8zm5 3a3 3 0 1 0 0-6 3 3 0 0 0 0 6zM6.343 16.343A8 8 0 0 0 4 22h2a6 6 0 1 1 12 0h2a8 8 0 0 0-13.657-5.657z" fill="#00D4EC"></path>
		</symbol>
	
</svg>
