<svg width="22" height="24" viewBox="0 0 22 24" fill="none" xmlns="http://www.w3.org/2000/svg">
<path d="M20.45 20.35C20.1 20.35 19.8 20.65 19.8 21V22.75H3.94999C2.99999 22.75 2.19999 22 2.14999 21.05V21C2.14999 20.95 2.14999 20.95 2.14999 20.85C2.19999 19.9 2.99999 19.15 3.94999 19.15H20.3C20.35 19.15 20.4 19.15 20.45 19.15C20.8 19.15 21.1 18.85 21.1 18.5V0.65C21.1 0.3 20.8 0 20.45 0H10.65V9.3L7.14999 5.8L3.64999 9.3V0C2.09999 0.15 0.899994 1.45 0.899994 3.05V3.1C0.899994 3.2 0.899994 3.4 0.899994 3.6C0.899994 5.3 0.899994 10.1 0.899994 14.25C0.899994 14.6 0.899994 14.9 0.899994 15.25C0.899994 17.9 0.899994 20.15 0.899994 20.8C0.899994 20.85 0.899994 20.85 0.899994 20.9C0.899994 21.2 0.949994 21.45 0.999994 21.7C1.34999 23 2.44999 23.9 3.74999 24C3.79999 24 3.79999 24 3.84999 24H20.45C20.8 24 21.1 23.7 21.1 23.35V21C21.1 20.65 20.8 20.35 20.45 20.35Z" fill="#1D1D1D"/>
</svg>
