<svg width="24" height="24" viewBox="0 0 24 24" fill="none" xmlns="http://www.w3.org/2000/svg">
<path d="M9.41959 6.71405C9.41959 7.06478 9.16907 7.3153 8.81834 7.3153C8.46761 7.3153 8.21708 7.06478 8.21708 6.71405C8.21708 6.36331 8.46761 6.11279 8.81834 6.11279C9.16907 6.11279 9.41959 6.36331 9.41959 6.71405Z" fill="#1D1D1D"/>
<path d="M15.7329 6.96425C15.7329 7.06446 15.6327 7.16467 15.5325 7.16467H10.2214C10.1212 7.16467 10.021 7.06446 10.021 6.96425V6.46321C10.021 6.363 10.1212 6.26279 10.2214 6.26279H15.5325C15.6327 6.26279 15.7329 6.363 15.7329 6.46321V6.96425Z" fill="#1D1D1D"/>
<path d="M8.81834 9.41969C9.1504 9.41969 9.41959 9.1505 9.41959 8.81844C9.41959 8.48638 9.1504 8.21719 8.81834 8.21719C8.48627 8.21719 8.21708 8.48638 8.21708 8.81844C8.21708 9.1505 8.48627 9.41969 8.81834 9.41969Z" fill="#1D1D1D"/>
<path d="M15.7329 9.11866C15.7329 9.21886 15.6327 9.31907 15.5325 9.31907H10.2214C10.1212 9.31907 10.021 9.21886 10.021 9.11866V8.56751C10.021 8.4673 10.1212 8.36709 10.2214 8.36709H15.5325C15.6327 8.36709 15.7329 8.4673 15.7329 8.56751V9.11866Z" fill="#1D1D1D"/>
<path d="M8.81834 11.5742C9.1504 11.5742 9.41959 11.305 9.41959 10.9729C9.41959 10.6409 9.1504 10.3717 8.81834 10.3717C8.48627 10.3717 8.21708 10.6409 8.21708 10.9729C8.21708 11.305 8.48627 11.5742 8.81834 11.5742Z" fill="#1D1D1D"/>
<path d="M15.7329 11.2235C15.7329 11.3237 15.6327 11.424 15.5325 11.424H10.2214C10.1212 11.424 10.021 11.3237 10.021 11.2235V10.6724C10.021 10.5722 10.1212 10.472 10.2214 10.472H15.5325C15.6327 10.472 15.7329 10.5722 15.7329 10.6724V11.2235Z" fill="#1D1D1D"/>
<path d="M8.81834 13.6786C9.1504 13.6786 9.41959 13.4094 9.41959 13.0773C9.41959 12.7453 9.1504 12.4761 8.81834 12.4761C8.48627 12.4761 8.21708 12.7453 8.21708 13.0773C8.21708 13.4094 8.48627 13.6786 8.81834 13.6786Z" fill="#1D1D1D"/>
<path d="M15.7329 13.3779C15.7329 13.4781 15.6327 13.5784 15.5325 13.5784H10.2214C10.1212 13.5784 10.021 13.4781 10.021 13.3779V12.8268C10.021 12.7266 10.1212 12.6264 10.2214 12.6264H15.5325C15.6327 12.6264 15.7329 12.7266 15.7329 12.8268V13.3779Z" fill="#1D1D1D"/>
<path d="M11.975 15.6826C9.67016 15.6826 7.8163 17.5365 7.8163 19.8413C7.8163 22.1461 9.67016 23.9999 11.975 23.9999C14.2798 23.9999 16.1336 22.1461 16.1336 19.8413C16.1336 17.5365 14.2798 15.6826 11.975 15.6826ZM14.4802 18.6388L11.524 21.5949C11.3737 21.7452 11.2735 21.8455 11.2234 21.8455C11.1733 21.8455 11.0731 21.7452 10.9228 21.5949L9.46975 20.1419C9.31943 19.9916 9.31943 19.7912 9.46975 19.691L9.67016 19.4906C9.82048 19.3402 10.0209 19.3402 10.1211 19.4906L10.9729 20.3423C11.1232 20.4926 11.3236 20.4926 11.4238 20.3423L13.7286 18.0375C13.8789 17.8872 14.0793 17.8872 14.1796 18.0375L14.38 18.2379C14.6305 18.288 14.6305 18.5386 14.4802 18.6388Z" fill="#1D1D1D"/>
<path d="M18.238 1.9541H5.762C5.46137 1.9541 5.26096 2.15452 5.26096 2.45515V19.3904C5.26096 19.6409 5.46137 19.8915 5.762 19.8915H7.21503C7.21503 19.5407 7.26513 19.2401 7.31524 18.8894H6.76409C6.51357 18.8894 6.26304 18.689 6.26304 18.3883V3.45723C6.26304 3.20671 6.46346 2.95619 6.76409 2.95619H17.7369V18.3883C17.7369 18.6389 17.5365 18.8894 17.2359 18.8894H16.6848C16.7349 19.19 16.785 19.5407 16.785 19.8915H18.238C18.4885 19.8915 18.739 19.6911 18.739 19.3904V2.45515C18.6889 2.15452 18.4885 1.9541 18.238 1.9541Z" fill="#1D1D1D"/>
</svg>
