<svg width="23" height="30" viewBox="0 0 23 30" fill="none" xmlns="http://www.w3.org/2000/svg">
<path d="M22.2859 20.9359C20.5472 19.3917 19.5502 17.1333 19.5502 14.7426V11.375C19.5502 7.12287 16.5436 3.603 12.6505 3.01394V1.70894C12.6505 1.04012 12.1348 0.5 11.5 0.5C10.8652 0.5 10.3495 1.04012 10.3495 1.70894V3.01394C6.45463 3.603 3.44983 7.12287 3.44983 11.375V14.7444C3.44983 17.1351 2.45283 19.3917 0.703765 20.9468C0.257012 21.3492 0 21.9346 0 22.5527C0 23.7181 0.90213 24.6679 2.01297 24.6679H20.987C22.0961 24.6679 23 23.7199 23 22.5527C23 21.9346 22.743 21.3492 22.2859 20.9359Z"/>
<path d="M11.5004 29.5C13.5824 29.5 15.3246 27.9412 15.7248 25.875H7.27439C7.6763 27.9412 9.41846 29.5 11.5004 29.5Z"/>
</svg>
