<svg width="24" height="24" viewBox="0 0 24 24" fill="none" xmlns="http://www.w3.org/2000/svg">
<path d="M20.1645 11.5259C20.0628 11.5259 19.9101 11.5259 19.8084 11.5259H19.4523C19.3506 11.5259 19.2997 11.476 19.2997 11.3762V10.977C19.2997 10.8772 19.2489 10.8273 19.198 10.8273C19.1471 10.8273 18.9945 10.8273 18.8928 10.8273C18.8928 10.8273 17.7737 10.8273 17.2141 10.8772C16.4002 10.9271 15.688 11.0269 15.0776 11.1766C14.3146 11.3263 13.755 11.5259 13.2972 11.7255C12.585 12.0248 12.1272 12.4739 12.1272 12.4739C12.0763 12.5238 11.9746 12.5238 11.8728 12.4739C11.8728 12.4739 11.3133 11.9749 10.4994 11.6257C10.0416 11.4261 9.53287 11.2764 8.8207 11.1267C8.15941 10.977 7.39637 10.8772 6.48073 10.8273C5.97204 10.7774 5.0564 10.7774 5.0564 10.7774C4.95466 10.7774 4.85292 10.7774 4.75118 10.7774C4.70031 10.7774 4.64945 10.8772 4.64945 10.9271V11.3263C4.64945 11.4261 4.54771 11.476 4.49684 11.476H4.14075C4.03902 11.476 3.88641 11.476 3.78467 11.476H3.5812C3.53033 11.5259 3.42859 11.5758 3.42859 11.6756V12.0747C3.42859 12.1745 3.42859 12.3242 3.42859 12.424V16.5155C3.42859 16.6153 3.42859 16.765 3.42859 16.8648V21.056C3.42859 21.1558 3.42859 21.3055 3.42859 21.4053V22.2535C3.42859 22.3533 3.53033 22.4032 3.5812 22.4032H3.78467C3.88641 22.4032 4.03902 22.4032 4.14075 22.4032C4.14075 22.4032 6.68421 22.503 7.65072 22.6028C8.61723 22.7525 9.38026 22.9022 9.93982 23.1018C11.0081 23.451 11.3133 23.8502 11.3133 23.8502C11.3642 23.9001 11.5168 23.9999 11.5676 23.9999H12.3815C12.4833 23.9999 12.585 23.95 12.6867 23.8502C12.6867 23.8502 12.9411 23.5508 13.7041 23.2515C14.1111 23.0519 14.7215 22.9022 15.4845 22.7525C16.095 22.6527 16.858 22.5529 17.7228 22.4531C18.3841 22.4032 19.8593 22.4032 19.8593 22.4032C19.961 22.4032 20.1136 22.4032 20.2154 22.4032H20.4188C20.5206 22.4032 20.5714 22.3034 20.5714 22.2535V21.2556C20.5714 21.1558 20.5714 21.0061 20.5714 20.9063V16.9646C20.5714 16.8648 20.5714 16.7151 20.5714 16.6153V12.5238C20.5714 12.424 20.5714 12.2743 20.5714 12.1745V11.6257C20.5714 11.5259 20.4697 11.476 20.4188 11.476H20.1645V11.5259ZM11.6185 21.7546C11.6185 21.8544 11.5676 21.9043 11.4659 21.8544C11.4659 21.8544 9.99069 21.056 8.15941 20.7567C7.3455 20.6569 5.46335 20.5571 5.46335 20.5571C5.36161 20.5571 5.31074 20.4573 5.31074 20.3575V11.5758C5.31074 11.476 5.41248 11.4261 5.46335 11.4261C5.46335 11.4261 5.81943 11.4261 6.07378 11.4261C6.58247 11.4261 7.04029 11.476 7.44724 11.5259C7.90506 11.5758 8.26115 11.6257 8.61723 11.6756C8.87157 11.7255 9.12592 11.7754 9.38026 11.8253C9.73635 11.9251 10.0416 12.0248 10.2959 12.1246C10.4994 12.2244 10.652 12.2743 10.8046 12.3741C11.3133 12.6735 11.4659 12.8731 11.4659 12.8731C11.5168 12.9729 11.5676 13.0727 11.5676 13.1725V14.1205C11.5676 14.2203 11.5676 14.37 11.5676 14.4697V17.0643C11.5676 17.1641 11.5676 17.3138 11.5676 17.4136V19.609C11.5676 19.7088 11.5676 19.8585 11.5676 19.9583V21.7546H11.6185ZM18.6893 20.3575C18.6893 20.4573 18.5876 20.5072 18.5367 20.5571C18.5367 20.5571 16.1458 20.6569 15.2302 20.8564C13.755 21.1059 12.5341 21.8544 12.5341 21.8544C12.4324 21.9043 12.3815 21.8544 12.3815 21.7546V20.0082C12.3815 19.9084 12.3815 19.7587 12.3815 19.6589V17.4635C12.3815 17.3637 12.3815 17.214 12.3815 17.1142V14.5695C12.3815 14.4697 12.3815 14.3201 12.3815 14.2203V13.2223C12.3815 13.1226 12.4324 12.9729 12.4833 12.923C12.4833 12.923 12.6867 12.6236 13.348 12.3242C13.7041 12.1246 14.162 11.9749 14.8232 11.8253C15.2811 11.7255 15.8406 11.6257 16.4511 11.5259C17.1124 11.476 18.5367 11.3762 18.5367 11.3762C18.6384 11.3762 18.6893 11.4261 18.6893 11.5259V20.3575Z" fill="black" />
<path d="M10.8556 18.5614C10.8556 18.6113 10.7538 18.6612 10.6521 18.6612C9.12603 18.312 7.59996 18.312 6.07389 18.6612C5.97215 18.6612 5.87041 18.6612 5.87041 18.5614C5.87041 18.5115 5.92128 18.4118 6.02302 18.4118C7.54909 18.0625 9.1769 18.0625 10.703 18.4118C10.8047 18.4118 10.8556 18.5115 10.8556 18.5614Z" fill="black" />
<path d="M10.8556 19.4096C10.8556 19.4595 10.7538 19.5094 10.6521 19.5094C9.12603 19.1601 7.59996 19.1601 6.07389 19.5094C5.97215 19.5094 5.87041 19.5094 5.87041 19.4096C5.87041 19.3597 5.92128 19.2599 6.02302 19.2599C7.54909 18.9106 9.1769 18.9106 10.703 19.2599C10.8047 19.2599 10.8556 19.3597 10.8556 19.4096Z" fill="black" />
<path d="M10.8045 16.9147C10.8045 16.9646 10.7028 17.0145 10.601 17.0145C9.07498 16.6652 7.54891 16.6652 6.02284 17.0145C5.9211 17.0145 5.81936 17.0145 5.81936 16.9147C5.81936 16.8648 5.87023 16.765 5.97197 16.765C7.49804 16.4157 9.12585 16.4157 10.6519 16.765C10.7537 16.765 10.8554 16.8149 10.8045 16.9147Z" fill="black" />
<path d="M10.8556 17.713C10.8556 17.7629 10.7538 17.8128 10.6521 17.8128C9.12603 17.4635 7.59996 17.4635 6.07389 17.8128C5.97215 17.8128 5.87041 17.8128 5.87041 17.713C5.87041 17.6631 5.92128 17.5633 6.02302 17.5633C7.54909 17.2141 9.1769 17.2141 10.703 17.5633C10.8047 17.6132 10.8556 17.6631 10.8556 17.713Z" fill="black" />
<path d="M10.8045 15.2181C10.8045 15.268 10.7028 15.3179 10.601 15.3179C9.07498 14.9686 7.54891 14.9686 6.02284 15.3179C5.9211 15.3179 5.81936 15.3179 5.81936 15.2181C5.81936 15.1682 5.87023 15.0684 5.97197 15.0684C7.49804 14.7191 9.12585 14.7191 10.6519 15.0684C10.7537 15.0684 10.8554 15.1682 10.8045 15.2181Z" fill="black" />
<path d="M10.8556 16.0665C10.8556 16.1164 10.7538 16.1663 10.6521 16.1663C9.12603 15.817 7.59996 15.817 6.07389 16.1663C5.97215 16.1663 5.87041 16.1663 5.87041 16.0665C5.87041 16.0166 5.92128 15.9168 6.02302 15.9168C7.54909 15.5676 9.1769 15.5676 10.703 15.9168C10.8047 15.9168 10.8556 16.0166 10.8556 16.0665Z" fill="black" />
<path d="M10.8045 13.5719C10.8045 13.6218 10.7028 13.6717 10.601 13.6717C9.07498 13.3224 7.54891 13.3224 6.02284 13.6717C5.9211 13.6717 5.81936 13.6717 5.81936 13.5719C5.81936 13.522 5.87023 13.4222 5.97197 13.4222C7.49804 13.0729 9.12585 13.0729 10.6519 13.4222C10.7537 13.4222 10.8554 13.4721 10.8045 13.5719Z" fill="black" />
<path d="M10.8556 14.3702C10.8556 14.4201 10.7538 14.47 10.6521 14.47C9.12603 14.1208 7.59996 14.1208 6.07389 14.47C5.97215 14.47 5.87041 14.47 5.87041 14.3702C5.87041 14.3203 5.92128 14.2205 6.02302 14.2205C7.54909 13.8713 9.1769 13.8713 10.703 14.2205C10.8047 14.2704 10.8556 14.3203 10.8556 14.3702Z" fill="black" />
<path d="M18.1298 18.5614C18.1298 18.6113 18.028 18.6612 17.9263 18.6612C16.4002 18.312 14.8742 18.312 13.3481 18.6612C13.2463 18.6612 13.1446 18.6612 13.1446 18.5614C13.1446 18.5115 13.1955 18.4118 13.2972 18.4118C14.8233 18.0625 16.4511 18.0625 17.9772 18.4118C18.0789 18.4118 18.1298 18.5115 18.1298 18.5614Z" fill="black" />
<path d="M18.1298 19.4096C18.1298 19.4595 18.028 19.5094 17.9263 19.5094C16.4002 19.1601 14.8742 19.1601 13.3481 19.5094C13.2463 19.5094 13.1446 19.5094 13.1446 19.4096C13.1446 19.3597 13.1955 19.2599 13.2972 19.2599C14.8233 18.9106 16.4511 18.9106 17.9772 19.2599C18.0789 19.2599 18.1806 19.3597 18.1298 19.4096Z" fill="black" />
<path d="M18.1298 16.9147C18.1298 16.9646 18.028 17.0145 17.9263 17.0145C16.4002 16.6652 14.8742 16.6652 13.3481 17.0145C13.2463 17.0145 13.1446 17.0145 13.1446 16.9147C13.1446 16.8648 13.1955 16.765 13.2972 16.765C14.8233 16.4157 16.4511 16.4157 17.9772 16.765C18.0789 16.765 18.1298 16.8149 18.1298 16.9147Z" fill="black" />
<path d="M18.1298 17.713C18.1298 17.7629 18.028 17.8128 17.9263 17.8128C16.4002 17.4635 14.8742 17.4635 13.3481 17.8128C13.2463 17.8128 13.1446 17.8128 13.1446 17.713C13.1446 17.6631 13.1955 17.5633 13.2972 17.5633C14.8233 17.2141 16.4511 17.2141 17.9772 17.5633C18.0789 17.6132 18.1298 17.6631 18.1298 17.713Z" fill="black" />
<path d="M18.1298 15.2181C18.1298 15.268 18.028 15.3179 17.9263 15.3179C16.4002 14.9686 14.8742 14.9686 13.3481 15.3179C13.2463 15.3179 13.1446 15.3179 13.1446 15.2181C13.1446 15.1682 13.1955 15.0684 13.2972 15.0684C14.8233 14.7191 16.4511 14.7191 17.9772 15.0684C18.0789 15.0684 18.1298 15.1682 18.1298 15.2181Z" fill="black" />
<path d="M18.1298 16.0665C18.1298 16.1164 18.028 16.1663 17.9263 16.1663C16.4002 15.817 14.8742 15.817 13.3481 16.1663C13.2463 16.1663 13.1446 16.1663 13.1446 16.0665C13.1446 16.0166 13.1955 15.9168 13.2972 15.9168C14.8233 15.5676 16.4511 15.5676 17.9772 15.9168C18.0789 15.9168 18.1298 16.0166 18.1298 16.0665Z" fill="black" />
<path d="M18.1298 13.5719C18.1298 13.6218 18.028 13.6717 17.9263 13.6717C16.4002 13.3224 14.8742 13.3224 13.3481 13.6717C13.2463 13.6717 13.1446 13.6717 13.1446 13.5719C13.1446 13.522 13.1955 13.4222 13.2972 13.4222C14.8233 13.0729 16.4511 13.0729 17.9772 13.4222C18.0789 13.4222 18.1298 13.4721 18.1298 13.5719Z" fill="black" />
<path d="M18.1298 14.3702C18.1298 14.4201 18.028 14.47 17.9263 14.47C16.4002 14.1208 14.8742 14.1208 13.3481 14.47C13.2463 14.47 13.1446 14.47 13.1446 14.3702C13.1446 14.3203 13.1955 14.2205 13.2972 14.2205C14.8233 13.8713 16.4511 13.8713 17.9772 14.2205C18.0789 14.2704 18.1806 14.3203 18.1298 14.3702Z" fill="black" />
<path d="M6.53153 10.2786C7.3963 10.3285 8.2102 10.4283 8.92237 10.578C9.58367 10.7276 10.1941 10.8773 10.7028 11.0769C11.2623 11.3264 11.7202 11.6258 11.9745 11.8254C12.2289 11.6258 12.5849 11.3763 13.0428 11.1767C13.6023 10.9272 14.2127 10.7276 14.9249 10.578C15.5862 10.4283 16.3492 10.3285 17.1631 10.2786C17.4684 10.2786 17.8753 10.2287 18.2314 10.2287C18.1805 10.1788 18.1805 10.079 18.1297 10.0291C17.9262 9.67983 17.6718 9.33056 17.4175 8.98129C17.1631 8.73181 16.9088 8.48233 16.6545 8.28274C16.3492 8.03326 15.9932 7.83368 15.6371 7.68399C15.2301 7.48441 14.7214 7.33472 14.2636 7.28482C13.9584 7.23493 13.9584 7.23493 13.9584 7.23493C13.9075 7.23493 13.8567 7.23493 13.8567 7.23493C15.0775 6.58628 15.9423 5.33888 15.9423 3.842C15.9423 1.74636 14.2127 0 12.0254 0C9.83801 0 8.10847 1.74636 8.10847 3.89189C8.10847 5.38877 8.97324 6.63617 10.1941 7.28482C10.0415 7.28482 9.88888 7.28482 9.73627 7.28482C9.73627 7.28482 9.73627 7.28482 9.32932 7.38461C8.97324 7.48441 8.66802 7.5842 8.31194 7.73389C7.95586 7.88358 7.65064 8.08316 7.34543 8.33264C7.04022 8.58212 6.78587 8.8316 6.53153 9.13098C6.37892 9.33056 6.17544 9.53014 6.07371 9.77962C5.97197 9.92931 5.87023 10.079 5.81936 10.2287C6.02284 10.2786 6.32805 10.2786 6.53153 10.2786Z" fill="black" />
</svg>
