<svg width="100" height="96" viewBox="0 0 100 96" fill="none" xmlns="http://www.w3.org/2000/svg">
<path d="M68.1875 48.3298C62.8928 52.0115 56.5221 53.9937 49.9844 53.9937C43.4467 53.9937 37.076 52.0115 31.7812 48.3298C22.4204 51.846 14.3809 57.9891 8.71152 65.9576C3.04218 73.9262 0.00630639 83.3501 0 93C0 93.7956 0.32924 94.5587 0.915291 95.1213C1.50134 95.6839 2.2962 96 3.125 96H96.875C97.7038 96 98.4987 95.6839 99.0847 95.1213C99.6708 94.5587 100 93.7956 100 93C99.9912 83.3466 96.9508 73.9201 91.2756 65.9512C85.6004 57.9823 77.5542 51.8412 68.1875 48.3298Z" fill="#E7E7E7"/>
<path d="M50 48.0002C63.8071 48.0002 75 37.255 75 24.0001C75 10.7452 63.8071 0 50 0C36.1929 0 25 10.7452 25 24.0001C25 37.255 36.1929 48.0002 50 48.0002Z" fill="#E7E7E7"/>
</svg>
